HIERARCHY
ROOT Hips
{
	OFFSET 35.553299 5.521014 98.545601
	CHANNELS 6 Xposition Yposition Zposition Xrotation Yrotation Zrotation
	JOINT spine
	{
		OFFSET 0.000000 -0.477353 8.301041
		CHANNELS 3 Xrotation Yrotation Zrotation
		JOINT spine1
		{
			OFFSET 0.000000 -0.000001 10.456497
			CHANNELS 3 Xrotation Yrotation Zrotation
			JOINT spine2
			{
				OFFSET 0.000000 -0.000002 10.019203
				CHANNELS 3 Xrotation Yrotation Zrotation
				JOINT Neck
				{
					OFFSET 0.000000 -1.226414 25.723495
					CHANNELS 3 Xrotation Yrotation Zrotation
					JOINT Head
					{
						OFFSET 0.000000 -0.000001 7.771744
						CHANNELS 3 Xrotation Yrotation Zrotation
						End Site
						{
							OFFSET 0.000000 6.203937 18.811996
						}
					}
				}
				JOINT RightShoulder
				{
					OFFSET -4.218800 0.587438 10.819992
					CHANNELS 3 Xrotation Yrotation Zrotation
					JOINT RightArm
					{
						OFFSET 0.000000 -0.000002 14.191406
						CHANNELS 3 Xrotation Yrotation Zrotation
						JOINT RightArmRoll
						{
							OFFSET 0.000000 -0.000001 7.164093
							CHANNELS 3 Xrotation Yrotation Zrotation
							JOINT RightForeArm
							{
								OFFSET 0.000000 -0.000004 20.866501
								CHANNELS 3 Xrotation Yrotation Zrotation
								JOINT RightForeArmRoll
								{
									OFFSET 0.000000 -0.000001 8.039215
									CHANNELS 3 Xrotation Yrotation Zrotation
									JOINT RightHand
									{
										OFFSET 0.000000 -0.000003 16.132996
										CHANNELS 3 Xrotation Yrotation Zrotation
										End Site
										{
											OFFSET 0.000000 0.000000 0.100006
										}
									}
								}
							}
						}
					}
				}
				JOINT LeftShoulder
				{
					OFFSET 4.218800 0.587438 10.819992
					CHANNELS 3 Xrotation Yrotation Zrotation
					JOINT LeftArm
					{
						OFFSET 0.000000 -0.000002 14.191406
						CHANNELS 3 Xrotation Yrotation Zrotation
						JOINT LeftArmRoll
						{
							OFFSET 0.000000 -0.000001 7.164093
							CHANNELS 3 Xrotation Yrotation Zrotation
							JOINT LeftForeArm
							{
								OFFSET 0.000000 -0.000004 20.866501
								CHANNELS 3 Xrotation Yrotation Zrotation
								JOINT LeftForeArmRoll
								{
									OFFSET 0.000000 -0.000001 8.039215
									CHANNELS 3 Xrotation Yrotation Zrotation
									JOINT LeftHand
									{
										OFFSET 0.000000 -0.000003 16.132996
										CHANNELS 3 Xrotation Yrotation Zrotation
										End Site
										{
											OFFSET 0.000000 0.000000 0.100006
										}
									}
								}
							}
						}
					}
				}
			}
		}
	}
	JOINT RightUpLeg
	{
		OFFSET -7.357731 1.131810 -1.349213
		CHANNELS 3 Xrotation Yrotation Zrotation
		JOINT RightUpLegRoll
		{
			OFFSET 0.000000 -0.000003 18.916801
			CHANNELS 3 Xrotation Yrotation Zrotation
			JOINT RightLeg
			{
				OFFSET 0.000000 0.000004 -23.425598
				CHANNELS 3 Xrotation Yrotation Zrotation
				JOINT RightLegRoll
				{
					OFFSET 0.000000 -0.000004 23.502304
					CHANNELS 3 Xrotation Yrotation Zrotation
					JOINT RightFoot
					{
						OFFSET 0.000000 -0.000003 19.561707
						CHANNELS 3 Xrotation Yrotation Zrotation
						JOINT RightToeBase
						{
							OFFSET 0.000000 -0.000003 16.352600
							CHANNELS 3 Xrotation Yrotation Zrotation
							End Site
							{
								OFFSET 0.006931 0.912835 7.919434
							}
						}
					}
				}
			}
		}
	}
	JOINT LeftUpLeg
	{
		OFFSET 7.357731 1.131810 -1.349213
		CHANNELS 3 Xrotation Yrotation Zrotation
		JOINT LeftUpLegRoll
		{
			OFFSET 0.000000 -0.000003 18.916901
			CHANNELS 3 Xrotation Yrotation Zrotation
			JOINT LeftLeg
			{
				OFFSET 0.000000 -0.000004 23.425499
				CHANNELS 3 Xrotation Yrotation Zrotation
				JOINT LeftLegRoll
				{
					OFFSET 0.000000 -0.000004 23.719498
					CHANNELS 3 Xrotation Yrotation Zrotation
					JOINT LeftFoot
					{
						OFFSET 0.000000 -0.000003 19.344406
						CHANNELS 3 Xrotation Yrotation Zrotation
						JOINT LeftToeBase
						{
							OFFSET 0.000000 -0.000003 16.352600
							CHANNELS 3 Xrotation Yrotation Zrotation
							End Site
							{
								OFFSET -0.031063 0.912836 7.919434
							}
						}
					}
				}
			}
		}
	}
}
MOTION
Frames: 9
Frame Time: 0.041667
33.825500 3.256262 100.975983 -5.447140 -0.840878 3.651619 -0.936258 -0.134349 0.266022 2.130945 -0.270737 0.531199 3.776001 -0.264354 0.534402 22.547952 1.259807 -1.913878 -13.950766 0.876464 -1.825852 -10.220049 -66.903465 -12.508925 -93.902998 -102.542853 -55.387524 0.000003 -0.000002 0.000004 23.553200 0.225127 1.105063 -0.000003 -0.000007 -3.000368 -5.000213 -7.998912 0.000134 -5.473935 62.965021 6.816855 -103.336295 96.153088 77.370491 -0.000001 0.000013 0.000001 17.358946 5.433006 0.146734 0.000009 -0.000012 3.005101 -5.000236 7.998793 -0.000152 -4.636253 -178.312538 1.299005 -179.999991 0.000005 -1.275000 153.226852 -2.212631 -1.894967 0.000001 -0.000001 0.326961 67.627533 6.811265 2.431595 24.505081 -7.354514 -0.123244 -4.992500 179.877471 -0.847971 -0.000004 -0.000004 -1.275070 -32.024660 4.679217 2.508215 -0.000008 0.000002 -0.427194 69.312452 -6.768694 -2.410717 24.240241 7.354054 0.144661 
33.817501 3.344843 100.674995 -5.443904 -0.866788 3.689998 -0.924792 -0.138687 0.264161 2.153896 -0.279165 0.527459 3.798943 -0.272827 0.530763 22.471983 1.486927 -1.957110 -13.987669 0.699741 -1.864640 -10.162271 -66.953114 -12.446136 -92.037912 -102.454593 -53.410276 0.000005 -0.000002 0.000001 23.403179 0.313630 1.106176 0.000002 -0.000009 -3.000370 -5.000208 -7.998915 0.000133 -5.313049 63.177290 6.649738 -101.640216 96.064917 75.651845 -0.000002 0.000010 -0.000003 16.929583 5.438142 0.157902 0.000011 -0.000012 3.005110 -5.000234 7.998794 -0.000152 -4.818534 -178.257173 1.366825 -179.999991 0.000005 -1.280997 152.663430 -2.176672 -1.915809 -0.000001 -0.000001 0.339957 67.698260 6.810799 2.427830 24.720953 -7.354951 -0.095298 -5.117368 179.898413 -0.942162 -0.000003 -0.000004 -1.283180 -32.443655 4.703173 2.543806 -0.000006 0.000002 -0.436247 69.355728 -6.793526 -2.347010 24.516202 7.354657 0.111846 
33.819500 3.347382 100.439995 -5.443697 -0.888817 3.731093 -0.912011 -0.143985 0.262971 2.179479 -0.289576 0.525048 3.824537 -0.283265 0.528478 22.389954 1.697277 -2.001211 -14.022230 0.536750 -1.905124 -10.118340 -66.999819 -12.398830 -90.150806 -102.375834 -51.422995 0.000002 -0.000003 0.000003 23.234178 0.390412 1.107223 0.000000 -0.000010 -3.000384 -5.000213 -7.998913 0.000135 -5.146317 63.384012 6.475742 -99.773730 95.983801 73.766207 -0.000003 0.000014 -0.000002 16.514627 5.440886 0.169494 0.000012 -0.000012 3.005121 -5.000237 7.998795 -0.000153 -5.004051 -178.201876 1.435543 -179.999991 0.000005 -1.285996 152.101414 -2.146977 -1.936285 0.000001 -0.000001 0.354905 67.807120 6.810163 2.421777 25.034503 -7.355381 -0.054699 -5.239427 179.914368 -1.038477 -0.000003 -0.000004 -1.293060 -32.852677 4.723615 2.577759 -0.000009 0.000001 -0.446682 69.420711 -6.829221 -2.255428 24.916935 7.355274 0.064201 
33.831799 3.401713 100.129982 -5.447013 -0.906489 3.775115 -0.897787 -0.150322 0.262525 2.207961 -0.302145 0.524123 3.853011 -0.295845 0.527702 22.301766 1.888592 -2.046368 -14.054834 0.389139 -1.947432 -10.090175 -67.043491 -12.369175 -88.243995 -102.306159 -49.429925 0.000004 -0.000000 0.000006 23.041566 0.453381 1.108156 0.000003 -0.000009 -3.000379 -5.000212 -7.998916 0.000131 -4.973467 63.584984 6.294518 -97.724776 95.910193 71.702445 -0.000002 0.000013 -0.000003 16.116992 5.441426 0.181471 0.000009 -0.000015 3.005120 -5.000228 7.998794 -0.000154 -5.192287 -178.145636 1.504501 -179.999991 0.000005 -1.289999 151.543893 -2.122633 -1.954975 0.000000 -0.000001 0.371983 67.958299 6.809467 2.412905 25.456962 -7.355617 -0.000000 -5.357555 179.925337 -1.136717 -0.000004 -0.000004 -1.304879 -33.248985 4.740300 2.609665 -0.000009 0.000002 -0.458636 69.510268 -6.876776 -2.132633 25.456957 7.355611 -0.000009 
33.830601 3.424803 99.887001 -5.452593 -0.920283 3.822380 -0.882285 -0.157966 0.262965 2.239005 -0.317376 0.524966 3.884057 -0.311065 0.528729 22.204911 2.066445 -2.094032 -14.083841 0.253645 -1.992655 -10.077977 -67.080360 -12.357217 -86.291920 -102.241416 -47.403699 0.000005 -0.000000 0.000004 22.834335 0.502731 1.108821 0.000000 -0.000008 -3.000382 -5.000213 -7.998913 0.000133 -4.793060 63.780129 6.104556 -95.460076 95.847170 69.425731 -0.000002 0.000017 -0.000000 15.733961 5.438864 0.193481 0.000012 -0.000013 3.005131 -5.000232 7.998793 -0.000155 -5.388980 -178.084492 1.574938 -179.999991 0.000005 -1.294002 150.980225 -2.101604 -1.973471 0.000001 -0.000001 0.390944 68.142564 6.808115 2.403469 26.035892 -7.355290 0.074987 -5.470214 179.933315 -1.238613 -0.000003 -0.000004 -1.319700 -33.627579 4.753664 2.640171 -0.000009 0.000002 -0.471318 69.610358 -6.941108 -1.966236 26.192280 7.355193 -0.087313 
33.845699 3.460978 99.617104 -5.458923 -0.931109 3.872842 -0.865772 -0.167023 0.264306 2.272089 -0.335431 0.527614 3.917145 -0.329087 0.531593 22.097033 2.237551 -2.144953 -14.107938 0.125964 -2.041391 -10.079782 -67.108036 -12.360635 -84.272998 -102.180211 -45.319108 0.000004 -0.000003 0.000003 22.624471 0.541034 1.109061 -0.000001 -0.000007 -3.000380 -5.000213 -7.998916 0.000131 -4.604412 63.969933 5.905251 -92.967016 95.799263 66.921517 -0.000001 0.000015 0.000000 15.359772 5.432292 0.205211 0.000009 -0.000012 3.005140 -5.000229 7.998794 -0.000154 -5.598950 -178.013526 1.648120 -179.999991 0.000005 -1.296993 150.399099 -2.082718 -1.993762 0.000001 -0.000001 0.411406 68.347914 6.805913 2.394782 26.793534 -7.353693 0.173152 -5.577606 179.938301 -1.345484 -0.000003 -0.000004 -1.338069 -33.987964 4.764332 2.670104 -0.000009 0.000001 -0.483991 69.708132 -7.024275 -1.750852 27.147557 7.353126 -0.200512 
33.848499 3.491832 99.376099 -5.466108 -0.939132 3.926208 -0.848271 -0.177326 0.266437 2.307155 -0.355976 0.531853 3.952204 -0.349580 0.536076 21.979306 2.401430 -2.198395 -14.127603 0.006184 -2.092984 -10.094267 -67.128247 -12.378010 -82.197713 -102.125931 -43.185838 0.000002 -0.000001 0.000003 22.411874 0.569758 1.108828 0.000003 -0.000010 -3.000381 -5.000215 -7.998915 0.000132 -4.408184 64.154457 5.697359 -90.279125 95.769176 64.223121 -0.000002 0.000014 0.000001 14.993747 5.421868 0.216685 0.000004 -0.000008 3.005152 -5.000228 7.998791 -0.000152 -5.820268 -177.933695 1.723760 -179.999991 0.000005 -1.299001 149.802441 -2.065109 -2.015372 -0.000000 -0.000001 0.433339 68.574915 6.803045 2.386552 27.702323 -7.350072 0.290883 -5.681154 179.941306 -1.456920 -0.000002 -0.000004 -1.359441 -34.334067 4.772368 2.699319 -0.000009 0.000003 -0.496873 69.807293 -7.123171 -1.493549 28.289774 7.348407 -0.335701 
33.865101 3.504873 99.088593 -5.474268 -0.944523 3.982206 -0.829811 -0.188707 0.269250 2.344130 -0.378675 0.537465 3.989183 -0.372209 0.541960 21.852487 2.557593 -2.253632 -14.143326 -0.105610 -2.146822 -10.120116 -67.142570 -12.407939 -80.078490 -102.081644 -41.015761 0.000003 -0.000003 0.000002 22.196247 0.590367 1.108094 0.000001 -0.000009 -3.000381 -5.000212 -7.998915 0.000132 -4.205048 64.333750 5.481652 -87.436072 95.759307 61.370295 -0.000003 0.000013 0.000000 14.634582 5.407783 0.227964 0.000005 -0.000012 3.005163 -5.000227 7.998792 -0.000154 -6.051042 -177.848045 1.801786 -179.999991 0.000005 -1.302007 149.192341 -2.049624 -2.036747 0.000000 -0.000001 0.456713 68.824073 6.799709 2.378297 28.734958 -7.343689 0.424587 -5.782292 179.939326 -1.572104 -0.000004 -0.000004 -1.383270 -34.669890 4.777853 2.727707 -0.000008 0.000002 -0.510179 69.911583 -7.234640 -1.201773 29.585828 7.340082 -0.488918 
33.869900 3.541674 98.844109 -5.483531 -0.947450 4.040550 -0.810425 -0.201002 0.272635 2.382990 -0.403194 0.544236 4.028036 -0.396646 0.549023 21.717732 2.705499 -2.309941 -14.155494 -0.209332 -2.202266 -10.155879 -67.152617 -12.448873 -77.929829 -102.050061 -38.822618 0.000003 -0.000001 0.000003 21.977389 0.604332 1.106828 -0.000001 -0.000007 -3.000379 -5.000207 -7.998915 0.000134 -3.995799 64.508172 5.259009 -84.482432 95.771547 58.407202 -0.000002 0.000011 -0.000006 14.281488 5.390187 0.239057 0.000008 -0.000011 3.005168 -5.000229 7.998790 -0.000152 -6.289349 -177.756575 1.881869 -179.999991 0.000005 -1.303004 148.570685 -2.036255 -2.058909 0.000001 -0.000001 0.481495 69.095976 6.796134 2.369326 29.864090 -7.333936 0.570626 -5.882462 179.934353 -1.690706 -0.000004 -0.000004 -1.409010 -34.999464 4.780829 2.755147 -0.000007 0.000002 -0.524128 70.024814 -7.355535 -0.882365 31.002662 7.327363 -0.656175 
